<svg xmlns="http://www.w3.org/2000/svg" xmlns:xlink="http://www.w3.org/1999/xlink" width="719" height="287" viewBox="-0.5 -0.5 719 287" style="background-color:rgb(255, 255, 255)" xmlns:v="https://vecta.io/nano"><style><![CDATA[.B{pointer-events:all}.C{text-anchor:middle}.D{stroke:#000}.E{stroke-miterlimit:10}.F{pointer-events:stroke}.G{font-family:Helvetica}.H{font-size:11px}.I{font-family:Courier New}.J{fill:#232f3e}]]></style><defs><style>@import url(https://fonts.googleapis.com/css?family=Architects+Daughter); @import url(https://fonts.googleapis.com/css?family=Architects+Daughter); </style><linearGradient x1="0%" y1="100%" x2="0%" y2="0%" id="A"><stop offset="0%" stop-color="#bc1356"/><stop offset="100%" stop-color="#ff4f8b"/></linearGradient><linearGradient x1="0%" y1="100%" x2="0%" y2="0%" id="B"><stop offset="0%" stop-color="#d05c17"/><stop offset="100%" stop-color="#f78e04"/></linearGradient><linearGradient x1="0%" y1="100%" x2="0%" y2="0%" id="C"><stop offset="0%" stop-color="#3334b9"/><stop offset="100%" stop-color="#4d72f3"/></linearGradient><path id="D" d="M233.88 44l-7 3.5 1.75-3.5-1.75-3.5z"/></defs><g class="D E"><path d="M80 44h148.63" fill="none" class="F"/><use xlink:href="#D" class="B"/></g><text x="154.5" y="33.5" fill="#000" class="C G H">POST /webhook</text><g class="D E"><path d="M313 44h115.63" fill="none" class="F"/><use xlink:href="#D" x="200" class="B"/></g><text x="362.5" y="33.5" fill="#000" class="C H I">trigger</text><path d="M235 5h78v78h-78z" fill="url(#A)" class="B"/><path d="M267.39 61.43h3.27v-2.24h-3.27zm5.5 0h3.34v-2.24h-3.34zm-13.36-45.65l-14.48 7.19v44.65l14.48 4.9zm2.22 14.21v29.2h3.34v2.24h-3.34v12.65c0 .36-.17.7-.46.91-.19.14-.42.21-.65.21a1.03 1.03 0 0 1-.35-.06l-16.7-5.64a1.13 1.13 0 0 1-.76-1.07V22.27c0-.43.24-.82.62-1.01l16.7-8.29c.34-.17.75-.15 1.08.06a1.12 1.12 0 0 1 .52.95v13.77h3.34v2.24zm16.7 31.44h3.34v-2.24h-3.34zm.08-31.44h3.26v-2.24h-3.26zm-5.57 0h3.27v-2.24h-3.27zm-5.57 0h3.27v-2.24h-3.27zm35.56-7.02l-14.48-7.19v56.74l14.48-4.9zm2.22 45.46a1.13 1.13 0 0 1-.76 1.07l-16.7 5.64a1.03 1.03 0 0 1-.35.06c-.23 0-.46-.07-.65-.21-.29-.21-.46-.55-.46-.91V61.43h-2.16v-2.24h2.16v-29.2h-2.16v-2.24h2.16V13.98a1.12 1.12 0 0 1 .52-.95c.33-.21.74-.23 1.08-.06l16.7 8.29c.38.19.62.58.62 1.01zm-27.9-31.3l-2.08-.8-5.57 14.59 2.08.81zm7.54 7.13a1.14 1.14 0 0 0 0-1.59l-4.46-4.49-1.57 1.59 3.67 3.7-3.67 3.69 1.57 1.59zm-17.16 4.49l-4.46-4.49a1.14 1.14 0 0 1 0-1.59l4.46-4.49 1.57 1.59-3.67 3.7 3.67 3.69z" fill="#fff" class="B"/><text x="273.5" y="101.5" font-size="12" class="C G J">API Gateway</text><g class="D E"><path d="M513 44h115.63" fill="none" class="F"/><use xlink:href="#D" x="400" class="B"/></g><text x="575.5" y="33.5" fill="#000" class="C H I">save/seek</text><path d="M435 5h78v78h-78z" fill="url(#B)" class="B"/><path d="M460.67 72.97h-13.84l15.3-31.98 6.93 14.27zm2.46-35.04c-.19-.38-.58-.63-1-.63h-.01a1.1 1.1 0 0 0-1 .64l-17.07 35.67a1.13 1.13 0 0 0 .06 1.07c.21.32.57.52.95.52h16.31c.43 0 .83-.25 1.01-.64l8.93-18.83a1.08 1.08 0 0 0 0-.96zm38.75 35.04h-13.75l-22.05-46.16c-.18-.39-.58-.64-1.01-.64h-8.99l.01-11.14h17.63l21.95 46.16c.18.39.58.64 1.01.64h5.2zM503 59.6h-5.62l-21.95-46.16c-.18-.39-.58-.64-1.01-.64h-19.45a1.13 1.13 0 0 0-1.12 1.11l-.01 13.37a1.11 1.11 0 0 0 1.12 1.12h9.41l22.05 46.16c.19.39.58.64 1.01.64H503c.61 0 1.11-.5 1.11-1.11V60.71c0-.61-.5-1.11-1.11-1.11z" fill="#fff" class="B"/><text x="473.5" y="101.5" font-size="12" class="C G J">Lambda</text><path d="M635 5h78v78h-78z" fill="url(#C)" class="B"/><path d="M687.42 60.55c-3.72 3-11.52 4.59-18.99 4.59-7.46 0-15.27-1.59-18.99-4.59v6.05h0c0 3.02 7.8 6.39 18.99 6.39s18.98-3.36 18.99-6.38zm.01-11.51l2.22-.01v.01c0 1.34-.67 2.6-1.98 3.75 1.59 1.4 1.98 2.78 1.98 3.75v.02V66.6h0c0 5.59-10.93 8.6-21.22 8.6-10.26 0-21.16-3-21.21-8.56 0 0-.01-.01-.01-.02V56.54c.01-.99.41-2.35 2-3.75-1.58-1.4-1.98-2.76-1.99-3.73h0l-.01-10.09c.01-.99.41-2.36 2-3.75-1.58-1.4-1.98-2.76-1.99-3.73h0l-.01-10.1c.03-5.58 10.95-8.59 21.22-8.59 5.81 0 11.39.92 15.31 2.53l-.85 2.04c-3.66-1.5-8.93-2.36-14.46-2.36-11.19 0-18.99 3.37-18.99 6.39s7.8 6.39 18.99 6.39l.9-.01.09 2.2c-.33.02-.66.02-.99.02-7.46 0-15.27-1.59-18.99-4.6v6.05h0v.03c.02 1.16 1.2 2.17 2.2 2.81 3 1.91 8.37 3.22 14.36 3.49l-.1 2.21c-6.07-.28-11.38-1.54-14.8-3.46-.85.62-1.66 1.48-1.66 2.44 0 3.02 7.8 6.39 18.99 6.39a49.44 49.44 0 0 0 3.25-.11l.15 2.21c-1.1.07-2.25.11-3.4.11-7.46 0-15.27-1.59-18.99-4.6v6.06h0c.02 1.18 1.2 2.19 2.2 2.84 3.43 2.18 9.86 3.55 16.79 3.55h.49v2.21h-.49c-7.04 0-13.44-1.31-17.35-3.52-.84.63-1.64 1.48-1.64 2.43 0 3.03 7.8 6.39 18.99 6.39s18.98-3.36 18.99-6.38v-.01h0c0-.96-.8-1.81-1.64-2.44-.54.31-1.13.61-1.79.88l-.85-2.04c.81-.33 1.51-.69 2.08-1.07 1.01-.66 2.21-1.68 2.21-2.83zm9.54-16.16h-6.24c-.37 0-.72-.19-.93-.49a1.11 1.11 0 0 1-.11-1.03l3.8-9.49H679.1l-6.68 13.26h7.11a1.12 1.12 0 0 1 .9.45c.21.29.27.65.16.99l-6.35 19.79zm3.42-.34l-27.86 28.78c-.21.22-.51.33-.8.33-.2 0-.39-.05-.57-.15-.45-.26-.65-.79-.49-1.28l7.34-22.88h-7.39a1.12 1.12 0 0 1-.95-.52c-.21-.33-.22-.74-.05-1.08l7.8-15.47a1.1 1.1 0 0 1 1-.61h16.71c.37 0 .72.18.92.48.21.31.25.69.12 1.03l-3.8 9.5h7.22c.44 0 .85.26 1.02.67a1.09 1.09 0 0 1-.22 1.2zm-49.33 34.5c1.58.89 3.57 1.63 5.91 2.22l.55-2.15c-2.12-.52-3.97-1.21-5.35-1.99zm5.91-15.46l.55-2.15c-2.12-.53-3.97-1.22-5.35-2l-1.11 1.92c1.58.89 3.57 1.64 5.91 2.23zm-5.91-19.91l1.11-1.92c1.38.78 3.23 1.47 5.35 2l-.55 2.14c-2.34-.58-4.33-1.33-5.91-2.22z" fill="#fff" class="B"/><text x="673.5" y="101.5" font-size="12" class="C G J">DynamoDB</text><g class="D E"><path d="M274 201V89.37" fill="none" class="F"/><path d="M274 84.12l3.5 7-3.5-1.75-3.5 1.75z" class="B"/></g><text x="273.5" y="169.5" fill="#000" class="C H I">GET /{owner}/{repo}/issues/{number}/events</text><path d="M262.15 201c-8.77 0-15.9 6.83-15.9 15.22 0 5.06 2.6 9.56 6.59 12.32-11.89 3.96-18.84 15.35-18.84 26.71v9.27h1.11 26.53v3.94c0 2.73 2.33 4.96 5.18 4.96h16.1v3.32h-7.08c-1.24-.02-2.25.94-2.25 2.12s1.01 2.14 2.25 2.12h23.96c1.24.02 2.25-.94 2.25-2.12s-1.01-2.14-2.25-2.12h-7.08v-3.32h16.1c2.85 0 5.18-2.23 5.18-4.96v-22.98c0-2.73-2.33-4.96-5.18-4.96h-22.59c-.79-1.27-1.7-2.53-2.73-3.73-2.96-3.47-6.98-6.51-12.07-8.22 4.01-2.77 6.63-7.27 6.63-12.35 0-8.39-7.14-15.22-15.91-15.22zm0 2.55c7.33 0 13.25 5.65 13.25 12.67 0 7.01-5.92 12.67-13.25 12.67s-13.24-5.66-13.24-12.67c0-7.02 5.91-12.67 13.24-12.67zM255.42 230a16.4 16.4 0 0 0 6.73 1.43c2.4 0 4.67-.51 6.71-1.42 5.57 1.41 9.82 4.49 12.92 8.12a28.48 28.48 0 0 1 1.82 2.39h-16.78c-2.85 0-5.18 2.23-5.18 4.96v16.92h-25.42v-7.15c0-11.13 7.05-22.24 19.2-25.25zm11.4 13.07h42c1.42 0 2.52 1.05 2.52 2.41v22.98c0 1.36-1.1 2.41-2.52 2.41h-42c-1.42 0-2.52-1.05-2.52-2.41v-22.98c0-1.36 1.1-2.41 2.52-2.41zm1.12 2.68v22.35h39.76v-22.35z" fill="#005073" class="B"/><path d="M42.59 81.5C20.47 81.5 5 63.47 5 44.29 5 21.35 23.47 6.5 42.87 6.5 61.56 6.5 80 21.83 80 43.99 80 63.84 64.21 81.5 42.59 81.5z" fill="#0d2636" class="B"/><path d="M34.48 73.29c0 1.62-1.23 2.29-3.07 1.66-11.1-3.89-21.77-15.9-21.77-30.9 0-20.29 17.36-33.08 32.4-33.08 19.52 0 33.41 16 33.41 32.88 0 13.94-8.97 26.77-22.41 31.27-1.52.4-2.46-.41-2.46-1.74v-9.77c0-1.89-.77-3.9-2.19-5.3 5.46-.62 8.77-1.99 11.3-4.6 2.49-2.47 3.61-6.1 3.82-10.58.13-3.56-.81-7.03-3.39-9.68.89-2.18 1.05-5.08-.31-8.66-2.7-.21-5.78 1.41-8.93 3.36-5.54-1.44-11.08-1.63-16.61.08-2.48-1.61-4.73-3.42-9.02-3.44-1.13 3.16-1.31 6.05-.34 8.61-3.06 3.4-3.41 6.74-3.36 10.07.34 6.42 2.69 9.67 5.3 11.61 2.17 1.61 5.21 2.62 9.84 3.3-1.24 1.23-1.94 2.7-2.06 4.41-2.72 1.25-6.62 1.87-9.29-1.91-1.19-1.9-2.81-4.04-5.9-4.03-.5-.02-1 .18-1.08.4-.06.24.22.74.56.94 2.7 1.71 3.14 2.68 4.24 5.03 1.03 2.74 2.8 3.8 4.72 4.54 1.96.69 5.14.5 6.6 0z" fill="#fff" class="B"/></svg>